<svg width="96" height="96" viewBox="0 0 96 96" fill="none" xmlns="http://www.w3.org/2000/svg">
<g clip-path="url(#clip0_272_7)">
<path d="M76 16H72V8H64V16H32V8H24V16H20C15.56 16 12.04 19.6 12.04 24L12 80C12 84.4 15.56 88 20 88H76C80.4 88 84 84.4 84 80V24C84 19.6 80.4 16 76 16ZM76 80H20V40H76V80ZM36 56H28V48H36V56ZM52 56H44V48H52V56ZM68 56H60V48H68V56ZM36 72H28V64H36V72ZM52 72H44V64H52V72ZM68 72H60V64H68V72Z" fill="#272727"/>
</g>
<defs>
<clipPath id="clip0_272_7">
<rect width="96" height="96" fill="white"/>
</clipPath>
</defs>
</svg>
