<svg width="96" height="96" viewBox="0 0 96 96" fill="none" xmlns="http://www.w3.org/2000/svg">
<path d="M48 55.1739L32.7817 70.4348C31.8196 71.3913 30.5951 71.8696 29.1082 71.8696C27.6213 71.8696 26.3969 71.3913 25.4348 70.4348C24.4783 69.4783 24 68.2609 24 66.7826C24 65.3043 24.4783 64.087 25.4348 63.1304L40.6957 47.8696L25.4348 32.7819C24.4783 31.8197 24 30.5952 24 29.1083C24 27.6214 24.4783 26.3969 25.4348 25.4348C26.3913 24.4783 27.6087 24 29.087 24C30.5652 24 31.7826 24.4783 32.7391 25.4348L48 40.6957L63.0877 25.4348C64.0498 24.4783 65.2743 24 66.7612 24C68.2482 24 69.4727 24.4783 70.4348 25.4348C71.4783 26.4783 72 27.7174 72 29.1522C72 30.587 71.4783 31.7826 70.4348 32.7391L55.1739 47.8696L70.4348 63.0879C71.3913 64.05 71.8696 65.2745 71.8696 66.7613C71.8696 68.2482 71.3913 69.4727 70.4348 70.4348C69.3913 71.4783 68.1522 72 66.7174 72C65.2826 72 64.087 71.4783 63.1304 70.4348L48 55.1739Z" fill="#6A6A6A"/>
</svg>
