<svg width="88" height="84" viewBox="0 0 88 84" fill="none" xmlns="http://www.w3.org/2000/svg">
<path d="M40.4622 2.70536C41.963 -0.139226 46.037 -0.13923 47.5378 2.70536L58.3646 23.226C58.9434 24.323 59.9983 25.0894 61.2204 25.3009L84.0824 29.2566C87.2516 29.8049 88.5105 33.6795 86.2689 35.9859L70.0983 52.624C69.2338 53.5134 68.8309 54.7536 69.0074 55.9812L72.3101 78.9466C72.7679 82.1301 69.472 84.5247 66.5858 83.1056L45.765 72.8679C44.652 72.3206 43.348 72.3206 42.235 72.8679L21.4142 83.1056C18.528 84.5247 15.2321 82.1301 15.6899 78.9466L18.9926 55.9812C19.1691 54.7536 18.7662 53.5134 17.9017 52.624L1.73111 35.9859C-0.510469 33.6795 0.748442 29.8049 3.91758 29.2566L26.7796 25.3009C28.0017 25.0894 29.0566 24.323 29.6354 23.226L40.4622 2.70536Z" fill="#F9E000"/>
</svg>
