<svg width="196" height="78" viewBox="0 0 196 78" fill="none" xmlns="http://www.w3.org/2000/svg">
<g filter="url(#filter0_d_407_9)">
<circle cx="37" cy="37" r="35" fill="url(#paint0_linear_407_9)"/>
</g>
<rect x="18" y="19" width="39" height="8" rx="4" fill="#A6DAFF"/>
<rect x="18" y="47" width="39" height="8" rx="4" fill="#A6DAFF"/>
<rect x="29" y="33" width="20" height="8" rx="4" fill="#A6DAFF"/>
<rect x="18" y="33" width="8" height="8" rx="4" fill="#A6DAFF"/>
<path d="M113.6 19.15C113.967 19.5833 114.15 20.0333 114.15 20.5C114.15 20.7 114.133 20.9167 114.1 21.15C114.1 21.35 114.083 21.5333 114.05 21.7C113.95 22.0667 113.733 22.4167 113.4 22.75C113.133 22.95 112.767 23.1 112.3 23.2C112.067 23.2667 111.833 23.3167 111.6 23.35C111.367 23.3833 111.117 23.4333 110.85 23.5C110.617 23.5333 110.383 23.55 110.15 23.55C109.917 23.55 109.667 23.55 109.4 23.55H106.85C106.25 23.5833 105.65 23.6 105.05 23.6C104.483 23.6 103.917 23.6 103.35 23.6C103.383 24.6333 103.4 25.75 103.4 26.95C103.4 28.1167 103.383 29.4833 103.35 31.05C103.35 32.6167 103.333 34.4333 103.3 36.5C103.3 38.5667 103.3 40.9667 103.3 43.7V47.5C103.3 47.8333 103.317 48.0833 103.35 48.25C103.35 48.3833 103.35 48.5167 103.35 48.65C103.35 48.75 103.333 48.8833 103.3 49.05C103.233 49.35 103.183 49.7 103.15 50.1C103.15 50.2667 103.133 50.4333 103.1 50.6C103.067 50.7333 103.017 50.8833 102.95 51.05C102.817 51.1833 102.75 51.2833 102.75 51.35L102.6 51.65C102.433 51.9833 102.117 52.3 101.65 52.6C100.917 52.9667 100.1 53.05 99.2 52.85C98.6333 52.7833 98.2 52.6333 97.9 52.4C97.6 52.1 97.3833 51.8 97.25 51.5C97.05 51.1333 96.9333 50.7833 96.9 50.45C96.8 50.15 96.75 49.8333 96.75 49.5V23.8C96.55 23.8 96.1333 23.8 95.5 23.8C94.8667 23.8 94.1833 23.8 93.45 23.8C92.75 23.7667 92.0833 23.7333 91.45 23.7C90.8167 23.6667 90.3833 23.6333 90.15 23.6C89.95 23.5667 89.6333 23.5167 89.2 23.45C88.8 23.3833 88.4667 23.3167 88.2 23.25C87.5 23.05 86.95 22.7333 86.55 22.3C86.1833 21.8667 86 21.3833 86 20.85C86 20.65 86 20.45 86 20.25C86 20.05 86.0333 19.8667 86.1 19.7C86.2 19.3 86.4667 18.9667 86.9 18.7C87.0333 18.6 87.2333 18.4833 87.5 18.35C87.8 18.1833 88.0833 18.0667 88.35 18C88.75 17.8667 89.25 17.7667 89.85 17.7C90.1167 17.6667 90.3833 17.65 90.65 17.65C90.9167 17.65 91.2 17.65 91.5 17.65C92.6667 17.65 93.7667 17.65 94.8 17.65C95.8667 17.65 96.9833 17.6333 98.15 17.6C100.083 17.5667 102 17.5667 103.9 17.6C105.833 17.6 107.75 17.6333 109.65 17.7C110.083 17.7333 110.5 17.7833 110.9 17.85C111.3 17.9167 111.7 18.0333 112.1 18.2C112.4 18.3 112.683 18.4333 112.95 18.6C113.217 18.7333 113.433 18.9167 113.6 19.15ZM118.134 30.4C119.234 29.8667 120.384 29.4833 121.584 29.25C122.784 29.0167 123.967 28.9667 125.134 29.1C126.334 29.2333 127.484 29.55 128.584 30.05C129.717 30.55 130.75 31.25 131.684 32.15C132.45 32.9167 133.117 33.85 133.684 34.95C134.25 36.0167 134.667 37.0667 134.934 38.1C135.5 39.9333 135.584 41.7833 135.184 43.65C134.784 45.5167 134.1 47.25 133.134 48.85C132.667 49.5833 132.084 50.25 131.384 50.85C130.717 51.4167 130 51.8833 129.234 52.25C128.234 52.7167 127.15 53.0333 125.984 53.2C124.817 53.4 123.684 53.45 122.584 53.35C120.584 53.25 118.817 52.75 117.284 51.85C115.784 50.95 114.567 49.8 113.634 48.4C112.734 47 112.134 45.4167 111.834 43.65C111.567 41.85 111.684 40.0167 112.184 38.15C112.717 36.15 113.484 34.5333 114.484 33.3C115.517 32.0333 116.734 31.0667 118.134 30.4ZM119.634 37.1C119.134 37.5667 118.75 38.15 118.484 38.85C118.217 39.55 118.05 40.2833 117.984 41.05C117.917 41.7833 117.967 42.5333 118.134 43.3C118.334 44.0333 118.634 44.7 119.034 45.3C119.367 45.8 119.967 46.2167 120.834 46.55C121.7 46.8833 122.6 47.0833 123.534 47.15C124.6 47.2167 125.534 46.9333 126.334 46.3C127.134 45.6333 127.734 44.8167 128.134 43.85C128.567 42.8833 128.767 41.8333 128.734 40.7C128.7 39.5667 128.4 38.5333 127.834 37.6C127.434 36.9333 126.867 36.45 126.134 36.15C125.434 35.8167 124.684 35.65 123.884 35.65C123.117 35.6167 122.35 35.7333 121.584 36C120.817 36.2333 120.167 36.6 119.634 37.1ZM165.718 32.9C165.785 34 165.768 35.1333 165.668 36.3C165.601 37.4667 165.485 38.6 165.318 39.7C164.985 41.6 164.368 43.45 163.468 45.25C162.568 47.05 161.251 48.5833 159.518 49.85C157.718 51.1833 155.668 52.1 153.368 52.6C151.068 53.0667 148.785 53.35 146.518 53.45C145.751 53.5167 144.968 53.5333 144.168 53.5C143.401 53.5 142.651 53.4167 141.918 53.25C141.318 53.15 140.868 52.9667 140.568 52.7C140.401 52.6 140.268 52.4667 140.168 52.3C140.068 52.1333 139.985 51.9667 139.918 51.8C139.818 51.6333 139.735 51.4667 139.668 51.3C139.635 51.1 139.585 50.9 139.518 50.7C139.485 50.5333 139.451 50.3833 139.418 50.25C139.418 50.0833 139.418 49.9333 139.418 49.8V21.25C139.418 21.0167 139.418 20.8 139.418 20.6C139.418 20.4 139.451 20.2 139.518 20C139.585 19.5333 139.685 19.15 139.818 18.85C139.951 18.45 140.135 18.1667 140.368 18C140.568 17.8333 140.768 17.7167 140.968 17.65C141.168 17.55 141.351 17.4667 141.518 17.4C141.718 17.3333 141.918 17.3333 142.118 17.4C142.351 17.4333 142.601 17.3833 142.868 17.25L151.218 17.45C153.418 17.5167 155.385 18.0333 157.118 19C158.851 19.9333 160.335 21.1333 161.568 22.6C162.801 24.0667 163.768 25.7167 164.468 27.55C165.168 29.35 165.585 31.1333 165.718 32.9ZM156.418 42.4C157.051 41.4 157.518 40.25 157.818 38.95C158.118 37.65 158.251 36.3333 158.218 35C158.185 33.6333 158.001 32.3167 157.668 31.05C157.335 29.75 156.868 28.6 156.268 27.6C155.801 26.8667 155.201 26.2667 154.468 25.8C153.735 25.3333 152.918 24.9833 152.018 24.75C151.118 24.4833 150.151 24.3 149.118 24.2C148.118 24.1 147.135 24.05 146.168 24.05C146.201 25.0167 146.218 25.95 146.218 26.85C146.218 27.75 146.218 28.7 146.218 29.7C146.185 30.9 146.168 32.0667 146.168 33.2C146.168 34.3333 146.168 35.4333 146.168 36.5V46.7C147.201 46.6667 148.185 46.6167 149.118 46.55C150.085 46.45 151.001 46.25 151.868 45.95C152.768 45.65 153.585 45.2333 154.318 44.7C155.085 44.1333 155.785 43.3667 156.418 42.4ZM176.288 30.4C177.388 29.8667 178.538 29.4833 179.738 29.25C180.938 29.0167 182.121 28.9667 183.288 29.1C184.488 29.2333 185.638 29.55 186.738 30.05C187.871 30.55 188.905 31.25 189.838 32.15C190.605 32.9167 191.271 33.85 191.838 34.95C192.405 36.0167 192.821 37.0667 193.088 38.1C193.655 39.9333 193.738 41.7833 193.338 43.65C192.938 45.5167 192.255 47.25 191.288 48.85C190.821 49.5833 190.238 50.25 189.538 50.85C188.871 51.4167 188.155 51.8833 187.388 52.25C186.388 52.7167 185.305 53.0333 184.138 53.2C182.971 53.4 181.838 53.45 180.738 53.35C178.738 53.25 176.971 52.75 175.438 51.85C173.938 50.95 172.721 49.8 171.788 48.4C170.888 47 170.288 45.4167 169.988 43.65C169.721 41.85 169.838 40.0167 170.338 38.15C170.871 36.15 171.638 34.5333 172.638 33.3C173.671 32.0333 174.888 31.0667 176.288 30.4ZM177.788 37.1C177.288 37.5667 176.905 38.15 176.638 38.85C176.371 39.55 176.205 40.2833 176.138 41.05C176.071 41.7833 176.121 42.5333 176.288 43.3C176.488 44.0333 176.788 44.7 177.188 45.3C177.521 45.8 178.121 46.2167 178.988 46.55C179.855 46.8833 180.755 47.0833 181.688 47.15C182.755 47.2167 183.688 46.9333 184.488 46.3C185.288 45.6333 185.888 44.8167 186.288 43.85C186.721 42.8833 186.921 41.8333 186.888 40.7C186.855 39.5667 186.555 38.5333 185.988 37.6C185.588 36.9333 185.021 36.45 184.288 36.15C183.588 35.8167 182.838 35.65 182.038 35.65C181.271 35.6167 180.505 35.7333 179.738 36C178.971 36.2333 178.321 36.6 177.788 37.1Z" fill="#0075FF"/>
<defs>
<filter id="filter0_d_407_9" x="0" y="0" width="78" height="78" filterUnits="userSpaceOnUse" color-interpolation-filters="sRGB">
<feFlood flood-opacity="0" result="BackgroundImageFix"/>
<feColorMatrix in="SourceAlpha" type="matrix" values="0 0 0 0 0 0 0 0 0 0 0 0 0 0 0 0 0 0 127 0" result="hardAlpha"/>
<feOffset dx="2" dy="2"/>
<feGaussianBlur stdDeviation="2"/>
<feComposite in2="hardAlpha" operator="out"/>
<feColorMatrix type="matrix" values="0 0 0 0 0 0 0 0 0 0.0248529 0 0 0 0 0.0541667 0 0 0 0.25 0"/>
<feBlend mode="normal" in2="BackgroundImageFix" result="effect1_dropShadow_407_9"/>
<feBlend mode="normal" in="SourceGraphic" in2="effect1_dropShadow_407_9" result="shape"/>
</filter>
<linearGradient id="paint0_linear_407_9" x1="25.5" y1="5" x2="53" y2="78" gradientUnits="userSpaceOnUse">
<stop stop-color="#0075FF"/>
<stop offset="1" stop-color="#004BA4"/>
</linearGradient>
</defs>
</svg>
