<svg width="194" height="70" viewBox="0 0 194 70" fill="none" xmlns="http://www.w3.org/2000/svg">
<circle cx="35" cy="35" r="35" fill="url(#paint0_linear_407_9)"/>
<rect x="16" y="17" width="39" height="8" rx="4" fill="#A6DAFF"/>
<rect x="16" y="45" width="39" height="8" rx="4" fill="#A6DAFF"/>
<rect x="27" y="31" width="20" height="8" rx="4" fill="#A6DAFF"/>
<rect x="16" y="31" width="8" height="8" rx="4" fill="#A6DAFF"/>
<path d="M111.6 17.15C111.967 17.5833 112.15 18.0333 112.15 18.5C112.15 18.7 112.133 18.9167 112.1 19.15C112.1 19.35 112.083 19.5333 112.05 19.7C111.95 20.0667 111.733 20.4167 111.4 20.75C111.133 20.95 110.767 21.1 110.3 21.2C110.067 21.2667 109.833 21.3167 109.6 21.35C109.367 21.3833 109.117 21.4333 108.85 21.5C108.617 21.5333 108.383 21.55 108.15 21.55C107.917 21.55 107.667 21.55 107.4 21.55H104.85C104.25 21.5833 103.65 21.6 103.05 21.6C102.483 21.6 101.917 21.6 101.35 21.6C101.383 22.6333 101.4 23.75 101.4 24.95C101.4 26.1167 101.383 27.4833 101.35 29.05C101.35 30.6167 101.333 32.4333 101.3 34.5C101.3 36.5667 101.3 38.9667 101.3 41.7V45.5C101.3 45.8333 101.317 46.0833 101.35 46.25C101.35 46.3833 101.35 46.5167 101.35 46.65C101.35 46.75 101.333 46.8833 101.3 47.05C101.233 47.35 101.183 47.7 101.15 48.1C101.15 48.2667 101.133 48.4333 101.1 48.6C101.067 48.7333 101.017 48.8833 100.95 49.05C100.817 49.1833 100.75 49.2833 100.75 49.35L100.6 49.65C100.433 49.9833 100.117 50.3 99.65 50.6C98.9167 50.9667 98.1 51.05 97.2 50.85C96.6333 50.7833 96.2 50.6333 95.9 50.4C95.6 50.1 95.3833 49.8 95.25 49.5C95.05 49.1333 94.9333 48.7833 94.9 48.45C94.8 48.15 94.75 47.8333 94.75 47.5V21.8C94.55 21.8 94.1333 21.8 93.5 21.8C92.8667 21.8 92.1833 21.8 91.45 21.8C90.75 21.7667 90.0833 21.7333 89.45 21.7C88.8167 21.6667 88.3833 21.6333 88.15 21.6C87.95 21.5667 87.6333 21.5167 87.2 21.45C86.8 21.3833 86.4667 21.3167 86.2 21.25C85.5 21.05 84.95 20.7333 84.55 20.3C84.1833 19.8667 84 19.3833 84 18.85C84 18.65 84 18.45 84 18.25C84 18.05 84.0333 17.8667 84.1 17.7C84.2 17.3 84.4667 16.9667 84.9 16.7C85.0333 16.6 85.2333 16.4833 85.5 16.35C85.8 16.1833 86.0833 16.0667 86.35 16C86.75 15.8667 87.25 15.7667 87.85 15.7C88.1167 15.6667 88.3833 15.65 88.65 15.65C88.9167 15.65 89.2 15.65 89.5 15.65C90.6667 15.65 91.7667 15.65 92.8 15.65C93.8667 15.65 94.9833 15.6333 96.15 15.6C98.0833 15.5667 100 15.5667 101.9 15.6C103.833 15.6 105.75 15.6333 107.65 15.7C108.083 15.7333 108.5 15.7833 108.9 15.85C109.3 15.9167 109.7 16.0333 110.1 16.2C110.4 16.3 110.683 16.4333 110.95 16.6C111.217 16.7333 111.433 16.9167 111.6 17.15ZM116.134 28.4C117.234 27.8667 118.384 27.4833 119.584 27.25C120.784 27.0167 121.967 26.9667 123.134 27.1C124.334 27.2333 125.484 27.55 126.584 28.05C127.717 28.55 128.75 29.25 129.684 30.15C130.45 30.9167 131.117 31.85 131.684 32.95C132.25 34.0167 132.667 35.0667 132.934 36.1C133.5 37.9333 133.584 39.7833 133.184 41.65C132.784 43.5167 132.1 45.25 131.134 46.85C130.667 47.5833 130.084 48.25 129.384 48.85C128.717 49.4167 128 49.8833 127.234 50.25C126.234 50.7167 125.15 51.0333 123.984 51.2C122.817 51.4 121.684 51.45 120.584 51.35C118.584 51.25 116.817 50.75 115.284 49.85C113.784 48.95 112.567 47.8 111.634 46.4C110.734 45 110.134 43.4167 109.834 41.65C109.567 39.85 109.684 38.0167 110.184 36.15C110.717 34.15 111.484 32.5333 112.484 31.3C113.517 30.0333 114.734 29.0667 116.134 28.4ZM117.634 35.1C117.134 35.5667 116.75 36.15 116.484 36.85C116.217 37.55 116.05 38.2833 115.984 39.05C115.917 39.7833 115.967 40.5333 116.134 41.3C116.334 42.0333 116.634 42.7 117.034 43.3C117.367 43.8 117.967 44.2167 118.834 44.55C119.7 44.8833 120.6 45.0833 121.534 45.15C122.6 45.2167 123.534 44.9333 124.334 44.3C125.134 43.6333 125.734 42.8167 126.134 41.85C126.567 40.8833 126.767 39.8333 126.734 38.7C126.7 37.5667 126.4 36.5333 125.834 35.6C125.434 34.9333 124.867 34.45 124.134 34.15C123.434 33.8167 122.684 33.65 121.884 33.65C121.117 33.6167 120.35 33.7333 119.584 34C118.817 34.2333 118.167 34.6 117.634 35.1ZM163.718 30.9C163.785 32 163.768 33.1333 163.668 34.3C163.601 35.4667 163.485 36.6 163.318 37.7C162.985 39.6 162.368 41.45 161.468 43.25C160.568 45.05 159.251 46.5833 157.518 47.85C155.718 49.1833 153.668 50.1 151.368 50.6C149.068 51.0667 146.785 51.35 144.518 51.45C143.751 51.5167 142.968 51.5333 142.168 51.5C141.401 51.5 140.651 51.4167 139.918 51.25C139.318 51.15 138.868 50.9667 138.568 50.7C138.401 50.6 138.268 50.4667 138.168 50.3C138.068 50.1333 137.985 49.9667 137.918 49.8C137.818 49.6333 137.735 49.4667 137.668 49.3C137.635 49.1 137.585 48.9 137.518 48.7C137.485 48.5333 137.451 48.3833 137.418 48.25C137.418 48.0833 137.418 47.9333 137.418 47.8V19.25C137.418 19.0167 137.418 18.8 137.418 18.6C137.418 18.4 137.451 18.2 137.518 18C137.585 17.5333 137.685 17.15 137.818 16.85C137.951 16.45 138.135 16.1667 138.368 16C138.568 15.8333 138.768 15.7167 138.968 15.65C139.168 15.55 139.351 15.4667 139.518 15.4C139.718 15.3333 139.918 15.3333 140.118 15.4C140.351 15.4333 140.601 15.3833 140.868 15.25L149.218 15.45C151.418 15.5167 153.385 16.0333 155.118 17C156.851 17.9333 158.335 19.1333 159.568 20.6C160.801 22.0667 161.768 23.7167 162.468 25.55C163.168 27.35 163.585 29.1333 163.718 30.9ZM154.418 40.4C155.051 39.4 155.518 38.25 155.818 36.95C156.118 35.65 156.251 34.3333 156.218 33C156.185 31.6333 156.001 30.3167 155.668 29.05C155.335 27.75 154.868 26.6 154.268 25.6C153.801 24.8667 153.201 24.2667 152.468 23.8C151.735 23.3333 150.918 22.9833 150.018 22.75C149.118 22.4833 148.151 22.3 147.118 22.2C146.118 22.1 145.135 22.05 144.168 22.05C144.201 23.0167 144.218 23.95 144.218 24.85C144.218 25.75 144.218 26.7 144.218 27.7C144.185 28.9 144.168 30.0667 144.168 31.2C144.168 32.3333 144.168 33.4333 144.168 34.5V44.7C145.201 44.6667 146.185 44.6167 147.118 44.55C148.085 44.45 149.001 44.25 149.868 43.95C150.768 43.65 151.585 43.2333 152.318 42.7C153.085 42.1333 153.785 41.3667 154.418 40.4ZM174.288 28.4C175.388 27.8667 176.538 27.4833 177.738 27.25C178.938 27.0167 180.121 26.9667 181.288 27.1C182.488 27.2333 183.638 27.55 184.738 28.05C185.871 28.55 186.905 29.25 187.838 30.15C188.605 30.9167 189.271 31.85 189.838 32.95C190.405 34.0167 190.821 35.0667 191.088 36.1C191.655 37.9333 191.738 39.7833 191.338 41.65C190.938 43.5167 190.255 45.25 189.288 46.85C188.821 47.5833 188.238 48.25 187.538 48.85C186.871 49.4167 186.155 49.8833 185.388 50.25C184.388 50.7167 183.305 51.0333 182.138 51.2C180.971 51.4 179.838 51.45 178.738 51.35C176.738 51.25 174.971 50.75 173.438 49.85C171.938 48.95 170.721 47.8 169.788 46.4C168.888 45 168.288 43.4167 167.988 41.65C167.721 39.85 167.838 38.0167 168.338 36.15C168.871 34.15 169.638 32.5333 170.638 31.3C171.671 30.0333 172.888 29.0667 174.288 28.4ZM175.788 35.1C175.288 35.5667 174.905 36.15 174.638 36.85C174.371 37.55 174.205 38.2833 174.138 39.05C174.071 39.7833 174.121 40.5333 174.288 41.3C174.488 42.0333 174.788 42.7 175.188 43.3C175.521 43.8 176.121 44.2167 176.988 44.55C177.855 44.8833 178.755 45.0833 179.688 45.15C180.755 45.2167 181.688 44.9333 182.488 44.3C183.288 43.6333 183.888 42.8167 184.288 41.85C184.721 40.8833 184.921 39.8333 184.888 38.7C184.855 37.5667 184.555 36.5333 183.988 35.6C183.588 34.9333 183.021 34.45 182.288 34.15C181.588 33.8167 180.838 33.65 180.038 33.65C179.271 33.6167 178.505 33.7333 177.738 34C176.971 34.2333 176.321 34.6 175.788 35.1Z" fill="#0075FF"/>
<defs>
<linearGradient id="paint0_linear_407_9" x1="23.5" y1="3" x2="51" y2="76" gradientUnits="userSpaceOnUse">
<stop stop-color="#0075FF"/>
<stop offset="1" stop-color="#004BA4"/>
</linearGradient>
</defs>
</svg>
