<svg width="96" height="96" viewBox="0 0 96 96" fill="none" xmlns="http://www.w3.org/2000/svg">
<g clip-path="url(#clip0_404_17)">
<path d="M8 68H88V76H8V68ZM12.6 51.8L16 45.88L19.4 51.8L24.6 48.8L21.2 42.88H28V36.88H21.2L24.6 31L19.4 28L16 33.88L12.6 28L7.4 31L10.8 36.88H4V42.88H10.8L7.4 48.8L12.6 51.8ZM39.4 48.8L44.6 51.8L48 45.88L51.4 51.8L56.6 48.8L53.2 42.88H60V36.88H53.2L56.6 31L51.4 28L48 33.88L44.6 28L39.4 31L42.8 36.88H36V42.88H42.8L39.4 48.8ZM92 36.88H85.2L88.6 31L83.4 28L80 33.88L76.6 28L71.4 31L74.8 36.88H68V42.88H74.8L71.4 48.8L76.6 51.8L80 45.88L83.4 51.8L88.6 48.8L85.2 42.88H92V36.88Z" fill="#C2C2C2"/>
</g>
<defs>
<clipPath id="clip0_404_17">
<rect width="96" height="96" fill="white"/>
</clipPath>
</defs>
</svg>
