<svg width="96" height="96" viewBox="0 0 96 96" fill="none" xmlns="http://www.w3.org/2000/svg">
<g clip-path="url(#clip0_404_25)">
<path d="M47.96 8C25.88 8 7.96001 25.92 7.96001 48C7.96001 70.08 25.88 88 47.96 88C70.04 88 87.96 70.08 87.96 48C87.96 25.92 70.04 8 47.96 8ZM62.4 33.36C66.68 33.36 70.12 36.8 70.12 41.08C70.12 45.36 66.68 48.8 62.4 48.8C58.12 48.8 54.68 45.36 54.68 41.08C54.64 36.8 58.12 33.36 62.4 33.36ZM38.4 27.04C43.6 27.04 47.84 31.28 47.84 36.48C47.84 41.68 43.6 45.92 38.4 45.92C33.2 45.92 28.96 41.68 28.96 36.48C28.96 31.24 33.16 27.04 38.4 27.04ZM38.4 63.56V78.56C28.8 75.56 21.2 68.16 17.84 58.72C22.04 54.24 32.52 51.96 38.4 51.96C40.52 51.96 43.2 52.28 46 52.84C39.44 56.32 38.4 60.92 38.4 63.56ZM47.96 80C46.88 80 45.84 79.96 44.8 79.84V63.56C44.8 57.88 56.56 55.04 62.4 55.04C66.68 55.04 74.08 56.6 77.76 59.64C73.08 71.52 61.52 80 47.96 80Z" fill="#C2C2C2"/>
</g>
<defs>
<clipPath id="clip0_404_25">
<rect width="96" height="96" fill="white"/>
</clipPath>
</defs>
</svg>
